<svg width="32" height="32" viewBox="0 0 32 32" fill="none" xmlns="http://www.w3.org/2000/svg">
<path d="M8.5 8.19998L10.5 19C10.6 19.8 11.3 20.4 12.1 20.4H25.7L27.6 10.1C27.8 9.09998 27 8.09998 26 8.09998H8.5V8.19998Z" stroke="#724025" stroke-width="1.5" stroke-miterlimit="10" stroke-linecap="round" stroke-linejoin="round"/>
<path d="M5 6H8.2L10.6 18.9C10.8 19.7 11.4 20.3 12.2 20.3H25.1C25.6 20.3 26.1 20.5 26.5 20.9C26.8 21.3 27.1 21.7 27.1 22.3C27.1 23.4 26.2 24.2 25.2 24.2H24.5" stroke="#724025" stroke-width="1.5" stroke-miterlimit="10" stroke-linecap="round" stroke-linejoin="round"/>
<path d="M11.1 24.2H9.5" stroke="#724025" stroke-width="1.5" stroke-miterlimit="10" stroke-linecap="round" stroke-linejoin="round"/>
<path d="M21.3 24.2H14.3" stroke="#724025" stroke-width="1.5" stroke-miterlimit="10" stroke-linecap="round" stroke-linejoin="round"/>
<path d="M12.7001 26.2C13.5838 26.2 14.3001 25.4837 14.3001 24.6C14.3001 23.7163 13.5838 23 12.7001 23C11.8164 23 11.1001 23.7163 11.1001 24.6C11.1001 25.4837 11.8164 26.2 12.7001 26.2Z" stroke="#724025" stroke-width="1.5" stroke-miterlimit="10" stroke-linecap="round" stroke-linejoin="round"/>
<path d="M22.8002 26.2C23.6839 26.2 24.4002 25.4837 24.4002 24.6C24.4002 23.7163 23.6839 23 22.8002 23C21.9165 23 21.2002 23.7163 21.2002 24.6C21.2002 25.4837 21.9165 26.2 22.8002 26.2Z" stroke="#724025" stroke-width="1.5" stroke-miterlimit="10" stroke-linecap="round" stroke-linejoin="round"/>
<path d="M22.8 11.4L21.7 17" stroke="#724025" stroke-width="1.5" stroke-miterlimit="10" stroke-linecap="round" stroke-linejoin="round"/>
<path d="M14.4999 17L13.3999 11.4" stroke="#724025" stroke-width="1.5" stroke-miterlimit="10" stroke-linecap="round" stroke-linejoin="round"/>
<path d="M18.0999 17V11.4" stroke="#724025" stroke-width="1.5" stroke-miterlimit="10" stroke-linecap="round" stroke-linejoin="round"/>
</svg>
