<svg width="20" height="20" viewBox="0 0 20 20" fill="none" xmlns="http://www.w3.org/2000/svg">
<path d="M10.2051 5.93701C7.88913 5.93701 5.97021 7.82284 5.97021 10.1719C5.97021 12.5209 7.85604 14.4067 10.2051 14.4067C12.5541 14.4067 14.4399 12.4878 14.4399 10.1719C14.4399 7.85592 12.521 5.93701 10.2051 5.93701ZM10.2051 12.8848C8.71624 12.8848 7.49211 11.6607 7.49211 10.1719C7.49211 8.68304 8.71624 7.45891 10.2051 7.45891C11.6939 7.45891 12.918 8.68304 12.918 10.1719C12.918 11.6607 11.6939 12.8848 10.2051 12.8848Z" fill="white"/>
<path d="M14.605 6.79733C15.1349 6.79733 15.5644 6.36777 15.5644 5.83787C15.5644 5.30798 15.1349 4.87842 14.605 4.87842C14.0751 4.87842 13.6455 5.30798 13.6455 5.83787C13.6455 6.36777 14.0751 6.79733 14.605 6.79733Z" fill="white"/>
<path d="M17.0866 3.35647C16.2264 2.46319 15.0023 2 13.6127 2H6.79728C3.91891 2 2 3.91891 2 6.79728V13.5796C2 15.0023 2.46319 16.2264 3.38956 17.1197C4.28284 17.9799 5.47389 18.41 6.83036 18.41H13.5796C15.0023 18.41 16.1933 17.9468 17.0535 17.1197C17.9468 16.2595 18.41 15.0354 18.41 13.6127V6.79728C18.41 5.40772 17.9468 4.21667 17.0866 3.35647ZM16.9543 13.6127C16.9543 14.6383 16.5903 15.4655 15.9948 16.0279C15.3993 16.5903 14.5722 16.8881 13.5796 16.8881H6.83036C5.83782 16.8881 5.01071 16.5903 4.41518 16.0279C3.81966 15.4324 3.5219 14.6053 3.5219 13.5796V6.79728C3.5219 5.80474 3.81966 4.97762 4.41518 4.3821C4.97762 3.81966 5.83782 3.5219 6.83036 3.5219H13.6458C14.6383 3.5219 15.4655 3.81966 16.061 4.41518C16.6234 5.01071 16.9543 5.83782 16.9543 6.79728V13.6127Z" fill="white"/>
</svg>
