<svg width="17" height="16" viewBox="0 0 17 16" fill="none" xmlns="http://www.w3.org/2000/svg">
<path d="M0.208047 5.10047H3.7241V15.6814H0.208047V5.10047ZM1.98961 0C0.786211 0 0 0.790039 0 1.82699C0 2.84262 0.763203 3.65562 1.94359 3.65562H1.96602C3.19242 3.65562 3.95617 2.84258 3.95617 1.82699C3.93316 0.790039 3.19246 0 1.98961 0ZM12.357 4.85191C10.4906 4.85191 9.65449 5.87848 9.18805 6.5984V5.10047H5.67094C5.7175 6.09309 5.67094 15.6814 5.67094 15.6814H9.18805V9.77227C9.18805 9.45578 9.21105 9.14047 9.30359 8.91375C9.55824 8.28195 10.1369 7.6277 11.1076 7.6277C12.3811 7.6277 12.8897 8.59844 12.8897 10.0202V15.6814H16.4062V9.61406C16.4062 6.3641 14.6718 4.85191 12.357 4.85191Z" fill="white"/>
</svg>
