<svg width="20" height="20" viewBox="0 0 20 20" fill="none" xmlns="http://www.w3.org/2000/svg">
<path d="M4.5 3.40576C3.12942 3.40576 2 4.53143 2 5.89746V14.2031C2 15.5691 3.12942 16.6948 4.5 16.6948H16.1667C17.5372 16.6948 18.6667 15.5691 18.6667 14.2031V5.89746C18.6667 4.53143 17.5372 3.40576 16.1667 3.40576H4.5ZM5.01269 5.06689H15.6426L10.5661 9.95133C10.4359 10.0766 10.1913 10.0769 10.0615 9.95133L5.01269 5.06689ZM17 6.06941V14.2031C17 14.6776 16.6427 15.0337 16.1667 15.0337H4.5C4.02392 15.0337 3.66667 14.6776 3.66667 14.2031V6.08076L8.90104 11.1436C9.68412 11.9011 10.9383 11.9024 11.7233 11.147L17 6.06941Z" fill="white"/>
</svg>
