<svg width="33" height="32" viewBox="0 0 33 32" fill="none" xmlns="http://www.w3.org/2000/svg">
<path d="M22.3999 8.99997C22.2137 9.18733 22.1091 9.44078 22.1091 9.70497C22.1091 9.96915 22.2137 10.2226 22.3999 10.41L26.9999 15L3.44993 15C3.18471 15 2.93036 15.1053 2.74282 15.2929C2.55529 15.4804 2.44993 15.7348 2.44993 16C2.44993 16.2652 2.55529 16.5195 2.74282 16.7071C2.93036 16.8946 3.18471 17 3.44993 17L26.9699 17L22.3999 21.57C22.2103 21.7583 22.1032 22.0142 22.1023 22.2814C22.1014 22.5487 22.2066 22.8053 22.3949 22.995C22.5832 23.1846 22.8392 23.2917 23.1064 23.2926C23.3736 23.2935 23.6303 23.1883 23.8199 23L30.1799 16.63C30.3479 16.4613 30.4421 16.233 30.4421 15.995C30.4421 15.757 30.3479 15.5286 30.1799 15.36L23.8199 8.99997C23.727 8.90624 23.6164 8.83185 23.4945 8.78108C23.3726 8.73031 23.2419 8.70417 23.1099 8.70417C22.9779 8.70417 22.8472 8.73031 22.7254 8.78108C22.6035 8.83185 22.4929 8.90624 22.3999 8.99997Z" fill="white"/>
</svg>
