<svg width="21" height="20" viewBox="0 0 21 20" fill="none" xmlns="http://www.w3.org/2000/svg">
<path d="M7.17272 6.43272C7.17272 6.43272 3.20563 6.87211 0.559225 7.16588C0.320697 7.19475 0.109789 7.35419 0.030698 7.59649C-0.0483928 7.83878 0.0306979 8.09112 0.206455 8.25055C2.17243 10.0445 5.12641 12.7311 5.12641 12.7311C5.12389 12.7311 4.31541 16.6392 3.7781 19.2467C3.7329 19.4827 3.81827 19.7325 4.02416 19.8819C4.22879 20.0313 4.49242 20.0338 4.69957 19.9171C7.01454 18.6014 10.482 16.6229 10.482 16.6229C10.482 16.6229 13.9507 18.6014 16.2619 19.9183C16.4728 20.0338 16.7364 20.0313 16.9411 19.8819C17.147 19.7325 17.2323 19.4827 17.1859 19.2479C16.6486 16.6392 15.8413 12.7311 15.8413 12.7311C15.8413 12.7311 18.7953 10.0445 20.7613 8.25432C20.937 8.08986 21.0149 7.83752 20.937 7.59649C20.8592 7.35545 20.6483 7.19601 20.4098 7.16839C17.7634 6.87211 13.795 6.43272 13.795 6.43272C13.795 6.43272 12.1504 2.79454 11.0545 0.369091C10.9515 0.151905 10.7356 0 10.482 0C10.2284 0 10.0112 0.15316 9.91328 0.369091C8.81606 2.79454 7.17272 6.43272 7.17272 6.43272Z" fill="#FFB120"/>
</svg>
