<svg width="17" height="14" viewBox="0 0 17 14" fill="none" xmlns="http://www.w3.org/2000/svg">
<path d="M16.41 1.57861C15.8067 1.84676 15.1575 2.02764 14.4763 2.10859C15.1718 1.6922 15.7051 1.03264 15.9566 0.245835C15.3061 0.63191 14.5859 0.912055 13.8187 1.06329C13.2048 0.409059 12.3297 0 11.3614 0C9.5023 0 7.99497 1.50732 7.99497 3.36674C7.99497 3.63023 8.02462 3.88706 8.08225 4.1339C5.28412 3.99332 2.80312 2.65322 1.14257 0.616253C0.852762 1.11325 0.686873 1.69153 0.686873 2.30912C0.686873 3.477 1.28114 4.50765 2.18454 5.11124C1.63291 5.09359 1.11359 4.94202 0.659558 4.68986C0.659225 4.70385 0.659225 4.71817 0.659225 4.73249C0.659225 6.3634 1.81978 7.72382 3.36008 8.03362C3.0776 8.11023 2.78014 8.15154 2.47301 8.15154C2.25582 8.15154 2.04496 8.13055 1.83943 8.09091C2.26815 9.42835 3.51131 10.402 4.98433 10.429C3.8321 11.3321 2.38074 11.8704 0.803128 11.8704C0.531644 11.8704 0.26349 11.8544 0 11.8231C1.49033 12.7788 3.25981 13.3357 5.16087 13.3357C11.3537 13.3357 14.7398 8.20583 14.7398 3.75681C14.7398 3.61091 14.7368 3.46534 14.7305 3.32077C15.388 2.84709 15.959 2.25382 16.41 1.57861Z" fill="white"/>
</svg>
